<svg class="logo__svg" xmlns="http://www.w3.org/2000/svg" viewBox="0 0 500 500"><path class="logo__fill logo__fill--outer" d="M372.4 417.1c-35.5 0-66.8-12.8-93.2-38.2-31.3 24.9-67.6 37.6-108.1 38h-.5c-94.3 0-171.1-76.7-171.1-171s76.7-171 171-171h.2c40.8.3 77.4 13.2 108.7 38.2 26.4-25.2 57.7-38 93.1-38 33.2 0 64.6 12.7 88.3 35.7 24.2 23.5 37.5 54.8 37.5 88.2 0 16-3.3 32.2-9.4 47.1 6.2 14.9 9.4 31.1 9.4 47.1-.1 68.3-56.6 123.9-125.9 123.9zm-92.4-56l4.3 4.4C309 391 338.6 404 372.4 404c62.1 0 112.7-49.7 112.7-110.9 0-15.1-3.3-30.5-9.5-44.4l-1.2-2.7 1.2-2.7c6.2-13.9 9.5-29.3 9.5-44.4 0-29.8-11.9-57.8-33.5-78.8-21.2-20.7-49.4-32-79.2-32-33.7 0-63.3 12.9-88 38.3l-4.3 4.4-4.7-4c-30-25.5-65.3-38.6-105-38.9h-.1c-87 0-157.9 70.8-157.9 157.9s70.9 157.9 158 157.9h.4c39.3-.3 74.5-13.3 104.4-38.7l4.8-3.9z"/><path class="logo__fill logo__fill--inner" d="M372.4 358c-36.4 0-57.8-25.2-70.7-44.1-.7-1.1-.7-2.5 0-3.6 5.8-8.6 11.6-18.1 17.7-29.1.4-.7 1.2-1.2 2-1.2s1.6.4 2 1.2c17.3 29.5 31 41 49 41 17.1 0 31-13.1 31-29.2 0-15.6-12.9-28.4-29.5-29.1-1.7-.1-3-1.5-3-3.1v-29.5c0-1.7 1.3-3.1 3-3.1 16.5-.8 29.5-13.6 29.5-29.1 0-16.1-13.9-29.2-31-29.2-26.8 0-42.8 27.3-65.9 72.2-26.4 51.3-59.3 115.2-136 115.8-61.9 0-112.1-50.2-112.1-112s50.2-112 111.9-112c36.8.3 67.2 15.3 93 45.8.8 1 1 2.4.3 3.5-4.9 8.7-13.2 24.7-15.6 29.4-.4.8-1.2 1.2-2 1.2-.7 0-1.5-.4-1.9-1-21.1-29.6-43.9-42.9-73.9-43.2-41.9 0-76 34.2-76 76.2s34.1 76.2 76.1 76.2c55-.5 79-47.1 104.4-96.4 23.2-45 47.1-91.6 97.7-91.6 36.8 0 66.8 29.1 66.8 64.9 0 16.7-6.5 32.5-18.4 44.7l-2.3 2.4 2.3 2.4c11.8 12.1 18.4 28 18.4 44.7-.1 35.8-30 64.9-66.8 64.9z"/></svg>